PathFileType	4	(X/Y/Z)	walk-thru1-4-TP.trc
DataRate	CameraRate	NumFrames	NumMarkers	Units	OrigDataRate	OrigDataStartFrame	OrigNumFrames
120.00	120.00	       4	60	mm	120.00	382	       508
Frame#	Time	Top.Head			Front.Head			Rear.Head			Jaw			C7			R.Clavicle			L.Clavicle			R.Shoulder			L.Shoulder			R.Scapula			L.Scapula			R.Scap.Inf			R.Biceps.Lateral			R.Elbow			R.Elbow.Medial			R.Forearm			R.Ulna			R.Radius			R.Wrist			R.Thumb.M1			R.Thumb.M2			R.Thumb.M3			R.Finger3.M1			R.Finger3.M2			R.Finger3.M3			L.Biceps.Lateral			L.Elbow			L.Elbow.Medial			L.Forearm			L.Ulna			L.Radius			L.Wrist			L.Thumb.M1			L.Thumb.M2			L.Thumb.M3			L.Finger3.M1			L.Finger3.M2			L.Finger3.M3			V.Sacral			R.ASIS			L.ASIS			R.Thigh			R.Thigh.Front			R.Knee			R.Knee.Medial			R.Shank			R.Ankle			R.Ankle.Medial			R.Heel			R.Toe			R.MedFoot			L.Thigh			L.Knee			L.Knee.Medial			L.Shank			L.Ankle			L.Ankle.Medial			L.Heel			L.Toe			L.MedFoot			V_mid_ASIS			V_R_Knee_JC			V_L_Knee_JC			V_R_Elbow_JC			V_L_Elbow_JC			V_R_Ankle_JC			V_L_Ankle_JC			V_R_Wrist_JC			V_L_Wrist_JC			V_R_ScaTrpz_1stMC_JC			V_R_1stMC_1stPP_JC			V_R_1stPP_1stDP_JC			V_R_LunCap_3rdMC_JC			V_R_3rdMC_3rdPP_JC			V_R_3rdPP_3rdMP_JC			V_R_3rdMP_3rdDP_JC			V_L_ScaTrpz_1stMC_JC			V_L_1stMC_1stPP_JC			V_L_1stPP_1stDP_JC			V_L_LunCap_3rdMC_JC			V_L_3rdMC_3rdPP_JC			V_L_3rdPP_3rdMP_JC			V_L_3rdMP_3rdPP_JC			V_ROOT_JC			V_R_Hip_JC			V_L_Hip_JC			V_R_GlenHum_JC			V_L_GlenHum_JC			V_ForeHead_Ctr			V_Vertex			V_Sagit_Lambdoid_Suture			V_R_FrontoTemp			V_L_FrontoTemporal			V_R_ParietalOccip			V_L_ParietalOcciptal			V_R_Temporal			V_L_Temporal			V_mid_FrontRearHead			V_mid_RLGlenHumCtrs			V_C7_vert			V_C1_vert			V_Mid_Hip			
		X1	Y1	Z1	X2	Y2	Z2	X3	Y3	Z3	X4	Y4	Z4	X5	Y5	Z5	X6	Y6	Z6	X7	Y7	Z7	X8	Y8	Z8	X9	Y9	Z9	X10	Y10	Z10	X11	Y11	Z11	X12	Y12	Z12	X13	Y13	Z13	X14	Y14	Z14	X15	Y15	Z15	X16	Y16	Z16	X17	Y17	Z17	X18	Y18	Z18	X19	Y19	Z19	X20	Y20	Z20	X21	Y21	Z21	X22	Y22	Z22	X23	Y23	Z23	X24	Y24	Z24	X25	Y25	Z25	X26	Y26	Z26	X27	Y27	Z27	X28	Y28	Z28	X29	Y29	Z29	X30	Y30	Z30	X31	Y31	Z31	X32	Y32	Z32	X33	Y33	Z33	X34	Y34	Z34	X35	Y35	Z35	X36	Y36	Z36	X37	Y37	Z37	X38	Y38	Z38	X39	Y39	Z39	X40	Y40	Z40	X41	Y41	Z41	X42	Y42	Z42	X43	Y43	Z43	X44	Y44	Z44	X45	Y45	Z45	X46	Y46	Z46	X47	Y47	Z47	X48	Y48	Z48	X49	Y49	Z49	X50	Y50	Z50	X51	Y51	Z51	X52	Y52	Z52	X53	Y53	Z53	X54	Y54	Z54	X55	Y55	Z55	X56	Y56	Z56	X57	Y57	Z57	X58	Y58	Z58	X59	Y59	Z59	X60	Y60	Z60	

382	3.175	915.91656	107.02621	1782.70972	1014.62030	88.61906	1660.55603	783.57910	113.12669	1707.49768	927.49121	91.93980	1486.38745	692.44000	97.83406	1581.40027	793.49225	-20.47750	1502.51990	792.72577	226.27292	1488.41321	744.28857	-126.63555	1494.65576	740.68518	327.68692	1488.06726	629.60193	-1.84707	1491.43152	620.31989	189.93312	1486.88977	598.88849	-6.79053	1401.76221	710.32092	-163.79395	1355.71094	655.57947	-200.17070	1172.33264	651.76001	-103.24057	1160.90430	752.22778	-189.94518	1109.83325	701.75824	-202.90729	972.83966	812.34204	-182.84375	946.98999	821.09869	-232.93156	927.41821	839.02374	-183.83327	902.60272	850.17633	-171.34805	852.16638	859.53827	-185.80786	802.23438	852.50977	-262.97806	855.46252	823.66309	-236.27132	784.32996	797.18707	-184.35089	811.76050	673.97296	348.98352	1346.07800	597.93707	354.79419	1181.66370	594.06708	259.59473	1157.52136	672.62299	363.16949	1091.93933	596.49933	379.34265	994.47656	685.34900	367.72989	926.77216	656.55444	406.62814	895.67468	703.05115	369.83545	868.52185	716.42902	345.02460	821.17926	717.68378	346.00540	771.29132	667.09784	418.28030	793.78033	662.09796	385.95767	736.40582	661.31415	325.49399	739.57172	574.78741	94.46928	1127.88831	770.85101	-92.92513	1067.04626	763.49152	258.33673	1078.56323	761.37878	-71.46922	688.27399	831.57892	19.75780	592.78210	787.39337	-38.67781	530.21716	773.15289	69.00963	531.38562	794.94476	9.97655	315.70651	705.12219	-11.90040	83.89621	721.32538	89.31139	109.59901	644.33295	38.45037	48.40279	876.47772	25.79725	43.69288	815.59827	63.27618	81.28152	822.18018	270.54108	698.21375	854.09637	258.81525	548.74042	852.36560	146.09464	529.51563	758.07861	213.02852	359.34579	538.98273	229.19226	208.74042	594.76312	137.86118	209.86888	489.19363	158.35875	205.13548	659.49792	203.97655	79.22753	640.22064	173.11847	147.17319																																																																																																																															
383	3.183	920.99268	108.20141	1782.26709	1020.27863	87.56976	1661.07275	788.52576	113.70377	1708.31226	932.41077	92.59895	1486.62878	697.68121	95.71571	1582.34033	797.50262	-20.36897	1502.09277	798.52844	225.69489	1488.99524	748.67297	-127.86763	1495.21057	745.94531	327.51654	1488.38416	634.46649	-2.00968	1492.48767	624.41766	188.93744	1486.44116	605.11469	-7.72187	1401.94922	716.75177	-163.90874	1356.47668	661.15723	-200.45752	1171.93799	657.80554	-103.13747	1161.08008	758.66333	-190.15352	1111.58716	710.53455	-203.30637	973.48663	820.67426	-184.43947	947.96912	828.87817	-232.55801	927.95319	846.93903	-184.79254	902.39862	855.92767	-171.43657	850.54016	862.28027	-186.11690	801.87335	859.40027	-263.82901	856.29968	829.00842	-238.24309	785.40155	801.13336	-187.11469	813.80402	678.07727	348.40457	1346.29968	601.39691	353.84369	1181.50977	598.26385	258.11383	1157.93494	676.22168	360.54700	1092.64990	600.98590	378.23459	995.40320	689.80042	368.04117	927.02441	660.78723	405.49469	896.57507	707.65674	368.25647	868.72955	721.56378	344.43018	821.98767	721.94702	344.50211	770.89117	670.98944	416.35770	795.14069	666.84100	383.74921	737.09247	664.20386	324.63055	739.90466	579.40918	93.34015	1128.36646	775.55408	-93.96928	1067.11377	768.26129	258.44919	1079.40710	764.82269	-71.29434	687.73560	832.02148	21.08992	592.81927	789.67377	-38.70638	530.17932	774.43323	68.59777	530.81470	795.17566	9.94464	315.31473	705.12219	-11.90040	83.89621	721.31824	89.44608	109.51618	644.32343	38.44286	48.65626	876.46326	25.76035	43.62703	815.18854	62.38773	81.22407	829.63214	269.64670	699.25262	863.44714	259.38467	550.98114	860.04425	146.12833	529.95905	770.14191	212.53954	358.44745	554.90564	229.40363	203.67119	609.87494	137.68246	205.83275	504.81122	159.30981	198.21461	679.58490	205.80295	78.50074	655.44666	172.60081	145.05331																																																																																																																															
384	3.192	926.14862	107.26758	1783.06030	1025.55310	87.99601	1661.29736	794.75012	114.35897	1708.01624	937.99701	92.46472	1487.19836	702.17059	97.71182	1582.45313	802.54181	-20.02343	1502.42249	803.06250	225.10355	1489.16321	755.12610	-126.92500	1495.21326	750.40240	327.31708	1488.37964	639.74298	-1.33750	1491.70972	630.19934	189.02449	1486.83984	610.80603	-7.91986	1402.40063	721.06183	-164.87300	1357.45068	667.29718	-201.01118	1172.19824	666.99048	-104.70023	1161.50671	765.41455	-191.08679	1113.25403	718.41046	-205.11292	973.60034	829.10089	-184.84462	949.65863	838.37054	-233.67853	928.85687	854.19885	-185.19852	902.67346	863.36102	-171.96771	851.56476	868.84930	-186.48535	801.77454	866.46692	-264.37219	856.04480	835.17334	-239.19354	786.51965	810.04810	-186.12038	814.91687	683.29926	348.14294	1347.23413	607.10303	352.81476	1181.35571	600.60339	258.91077	1159.43604	680.48132	359.45627	1092.36218	604.67236	375.68918	995.76770	695.75739	365.45087	927.09662	666.12579	403.86221	897.38281	712.80609	368.44873	869.86261	727.13580	342.93439	822.35767	727.46912	343.37024	771.82147	675.23950	414.62930	795.20386	672.28680	381.72000	737.56940	672.09125	322.74750	739.91565	584.69098	93.90127	1128.62573	780.74512	-94.18304	1067.35864	772.91089	258.04120	1079.49402	766.59589	-71.52670	688.23938	834.13293	21.25956	592.42456	791.37787	-38.86887	529.87177	774.23376	69.61748	531.51239	796.22717	10.18220	314.63251	705.19568	-11.75536	83.94871	721.22156	90.01789	109.72892	643.98016	37.98791	48.80600	876.77820	25.96725	43.14789	815.14502	62.37369	81.01013	836.59125	269.94739	700.74536	871.07617	257.81573	551.72186	867.86389	144.21793	531.05334	782.23999	211.58760	357.98102	569.89990	229.55170	197.58699	625.96661	137.96771	201.39491	520.28595	159.34244	190.50699	699.67151	207.89865	76.84601	674.78076	174.72710	142.64557																																																																																																																															
385	3.200	930.88330	107.06234	1783.69177	1030.59412	87.47099	1661.27942	799.79803	112.55936	1708.52087	942.45074	92.03098	1487.35754	706.76501	96.09873	1582.38196	807.79590	-20.31228	1502.52039	808.23981	224.62596	1489.31909	760.19061	-127.51120	1495.03992	754.71082	326.07742	1488.78711	644.67407	-2.61935	1491.82251	635.63660	188.40924	1486.65564	615.28424	-8.16975	1402.68445	726.98798	-165.26703	1357.48950	673.30682	-202.52115	1172.90466	669.17761	-104.57974	1161.75586	771.36115	-188.88271	1112.39380	726.02356	-207.64261	974.81506	835.90289	-186.33176	950.68829	845.40430	-235.59508	929.88983	861.63306	-187.01120	904.16125	868.00208	-171.09897	853.09210	869.87982	-183.34720	801.92572	872.30988	-264.29288	855.42450	839.41980	-239.11887	786.46906	811.28754	-186.61827	815.70190	686.88361	347.35068	1347.31262	610.93121	352.01950	1182.29541	608.53766	256.87836	1160.36707	685.82892	358.80981	1093.44861	610.23944	374.72595	995.88007	700.23578	364.31390	928.05829	670.17615	402.93469	897.66492	717.36017	366.08734	869.74762	730.89301	342.39014	823.51007	732.61621	342.62091	772.29358	681.04449	413.24353	795.70770	677.29175	380.51407	738.17249	676.30927	321.55988	741.80267	589.96997	93.52189	1128.55042	781.86041	-92.93311	1066.23474	778.51526	258.14111	1079.79358	769.24182	-72.07163	687.60858	836.67767	21.04580	591.44641	792.74420	-39.69107	529.51147	776.29016	71.81219	531.03296	797.37177	9.83115	314.96588	705.37445	-11.72702	84.19248	721.14532	90.09094	109.64551	644.14014	38.28894	48.65054	876.55115	25.48763	43.08582	815.31677	62.73070	80.83821	843.85999	269.21771	701.18567	878.65381	257.11115	553.32349	876.10608	143.13736	533.35669	793.88123	211.35228	357.13174	586.37756	229.63304	191.68987	641.99615	138.44849	195.64697	536.16620	157.67606	181.79820	719.63873	209.72388	75.13340	693.03564	176.03415	139.39810																																																																																																																															
